<?xml version="1.0" encoding="UTF-8"?>
<!DOCTYPE svg PUBLIC "-//W3C//DTD SVG 1.1//EN" "http://www.w3.org/Graphics/SVG/1.1/DTD/svg11.dtd">
<!-- Creator: CorelDRAW 2017 -->
<svg xmlns="http://www.w3.org/2000/svg" xml:space="preserve" width="194.243mm" height="93.8571mm" version="1.1" style="shape-rendering:geometricPrecision; text-rendering:geometricPrecision; image-rendering:optimizeQuality; fill-rule:evenodd; clip-rule:evenodd"
viewBox="0 0 19255.87 9304.32"
 xmlns:xlink="http://www.w3.org/1999/xlink">
 <defs>
  <style type="text/css">
   <![CDATA[
    .fil0 {fill:#176C74}
   ]]>
  </style>
 </defs>
 <g id="Layer_x0020_1">
  <metadata id="CorelCorpID_0Corel-Layer"/>
  <g id="_1880325658912">
   <path class="fil0" d="M1297.93 7984.41l-995.08 0 0 -7659.85 7679.42 0 0 692.42 -6684.34 0 0 6967.42zm-1297.93 324.57l1297.93 0 0 995.34 8285.12 0 0 -1839.23 -302.84 0 0 1536.3 -7679.42 0 0 -7659.85 7679.42 0 0 2185.43 302.84 0 0 -2509.99 -1297.93 0 0 -1016.98 -8285.12 0 0 8308.98z"/>
   <path class="fil0" d="M6489.65 6339.92l0 -1493.02c287.76,0 570.52,-10.91 773.91,177.94 300.3,278.83 295.94,878.17 -32.58,1169.44 -150.61,133.53 -462.51,145.64 -741.33,145.64zm-43.26 -1925.78l0 432.76 -648.97 0 0 1990.69c394.85,0 1263.31,36.65 1598.6,-67.1 171.82,-53.17 261.79,-109.32 387.08,-218.68l149.51 -153.38c309.45,-386.03 323.09,-1050.23 100.03,-1450.45 -335.38,-601.73 -892.1,-598.75 -1521.36,-598.75 -49.84,0 -64.89,15.06 -64.89,64.91z"/>
   <path class="fil0" d="M2639.12 6339.92l0 -1493.02c299.32,0 514.85,-5.99 736.23,150.73 338.29,239.48 311.75,1004.81 -22.66,1212.16 -185.19,114.83 -418.71,130.13 -713.57,130.13zm-43.26 -1925.78l0 432.76 -648.97 0 0 1990.69 1038.35 0c430.7,0 749.24,-90.31 968.49,-307.89 240.59,-238.74 372.71,-488.16 372.71,-947.11 0,-584.79 -358.73,-1062.69 -838.5,-1173.61 -264.34,-61.13 -540.82,-59.76 -827.18,-59.76 -49.84,0 -64.89,15.06 -64.89,64.91z"/>
   <path class="fil0" d="M8523.08 6837.59l692.22 0 0 -2423.45c0,-49.85 -15.05,-64.91 -64.9,-64.91l-627.32 0 0 2488.36z"/>
   <path class="fil0" d="M4650.92 4414.14l0 2423.45 692.22 0 0 -2488.36 -627.33 0c-49.83,0 -64.89,15.06 -64.89,64.91z"/>
   <path class="fil0" d="M14731.5 5907.16c0,-359.5 291.16,-757.33 692.23,-757.33 237.1,0 401.19,29.1 579.22,221.21 368.78,397.97 257.67,1271.81 -579.22,1271.81 -229,0 -364.03,-110.2 -481.82,-232.11 -57.57,-59.57 -102.95,-124.42 -137.08,-209.09 -24.69,-61.27 -73.34,-225.74 -73.34,-294.49zm670.6 995.34c461.22,0 567.43,-183.02 778.76,-324.57l0 259.66 281.22 0 0 -1904.13c-342.06,0 -281.22,-33.3 -281.22,302.92 -233.03,-268.15 -415.28,-346.2 -778.76,-346.2 -740.28,0 -1304.72,981.25 -675.91,1693.07 129.4,146.48 411.21,319.26 675.91,319.26z"/>
   <path class="fil0" d="M12395.23 6642.85c-288.66,0 -563.56,-172.32 -668.3,-435.05 -116.11,-291.28 -72.07,-610.88 143.28,-825.82 515.51,-514.59 1254.24,-112.17 1254.5,525.19 0.16,400.63 -316.86,735.68 -729.47,735.68zm-995.08 -843.88c0,346.43 25.64,556.34 296.8,828.28 601.09,602.81 1693.36,151.37 1693.36,-655.19 0,-339.54 -47.82,-557.56 -275.47,-784.72 -649.64,-648.23 -1714.69,-160.08 -1714.69,611.62z"/>
   <path class="fil0" d="M9691.21 4262.67l0 2574.92 281.22 0 0 -800.6c169.11,113.27 636.06,560.6 827.74,729.96 118.53,104.73 235.86,70.63 448.56,70.63 -74.62,-111.46 -171.73,-162.92 -265.24,-253.99l-269.72 -249.53c-56.39,-54.32 -85.41,-63.76 -141.43,-118.19l-405.22 -373.64 514.01 -437.92c87.32,-81.28 155.98,-148.29 252.34,-223.62 63.66,-49.77 70.88,-61.56 125.87,-112.11 71.35,-65.59 99.93,-43.13 124.49,-135.14 -361.6,0 -321.89,-68.18 -686.57,286.94 -53.52,52.12 -77.58,58.51 -130.21,107.78l-394.62 340.97 0 -1146.81c0.25,-334.21 58.49,-324.57 -216.33,-324.57 -49.83,0 -64.89,15.06 -64.89,64.91z"/>
   <path class="fil0" d="M16894.73 5387.85c0,624.67 860.48,547.26 806.95,981.39 -27.84,225.66 -279.22,357.68 -562.85,202.54 -94.73,-51.81 -91.47,-100.23 -179.21,-123.67 -27.01,19.8 -130.59,141.98 -151.43,173.11 335.74,501.52 1168.13,286.64 1168.13,-281.29 0,-568.21 -843.65,-620.33 -843.65,-930.43 0,-190.9 157.12,-281.3 259.58,-281.3 214.25,0 289.71,113.49 411.01,194.75l155.92 -168.71c-278.82,-407.98 -1064.46,-354.31 -1064.46,233.63z"/>
   <path class="fil0" d="M18582.03 4284.31l0 649.14 -324.48 0c0,287.87 -54.9,238.02 324.48,238.02l0 1666.12 281.22 0 0 -1666.12c454.57,0 389.38,55.37 389.38,-238.02l-389.38 0 0 -649.14c0,-86.28 -61.28,-64.91 -216.32,-64.91 -49.85,0 -64.9,15.06 -64.9,64.91z"/>
   <path class="fil0" d="M13628.26 7335.27c-213.13,0 -194.69,-155.43 -194.69,194.75 153.36,35.73 627.33,227.91 627.33,-367.85l0 -2228.7c-353.28,0 -259.59,-124.47 -259.59,562.59 0,411.23 16.91,1284.45 -19.05,1647.05 -12.53,126.3 -20.4,192.17 -154,192.17z"/>
   <path class="fil0" d="M13714.79 4349.23c0,342.47 411.01,226.01 411.01,64.91 0,-386.75 -411.01,-290.92 -411.01,-64.91z"/>
  </g>
 </g>
</svg>
