<?xml version="1.0" encoding="UTF-8"?>
<!DOCTYPE svg PUBLIC "-//W3C//DTD SVG 1.1//EN" "http://www.w3.org/Graphics/SVG/1.1/DTD/svg11.dtd">
<!-- Creator: CorelDRAW 2017 -->
<svg xmlns="http://www.w3.org/2000/svg" xml:space="preserve" width="194.243mm" height="93.857mm" version="1.1" style="shape-rendering:geometricPrecision; text-rendering:geometricPrecision; image-rendering:optimizeQuality; fill-rule:evenodd; clip-rule:evenodd"
viewBox="0 0 19424.32 9385.7"
 xmlns:xlink="http://www.w3.org/1999/xlink">
 <defs>
  <style type="text/css">
   <![CDATA[
    .fil0 {fill:white}
   ]]>
  </style>
 </defs>
 <g id="Layer_x0020_1">
  <metadata id="CorelCorpID_0Corel-Layer"/>
  <g id="_1880325658912">
   <path class="fil0" d="M1309.28 8054.24l-1003.78 0 0 -7726.85 7746.59 0 0 698.48 -6742.81 0 0 7028.36 0 0.01zm-1309.28 327.41l1309.28 0 0 1004.05 8357.59 0 0 -1855.32 -305.49 0 0 1549.74 -7746.59 0 0 -7726.85 7746.59 0 0 2204.55 305.49 0 0 -2531.94 -1309.28 0 0 -1025.88 -8357.59 0 0 8381.66 0 -0.01z"/>
   <path class="fil0" d="M6546.41 6395.36l0 -1506.08c290.28,0 575.51,-11.01 780.68,179.5 302.93,281.27 298.53,885.85 -32.86,1179.67 -151.93,134.7 -466.56,146.91 -747.81,146.91l-0.01 0zm-43.63 -1942.62l0 436.55 -654.65 0 0 2008.1c398.3,0 1274.36,36.97 1612.58,-67.69 173.32,-53.64 264.08,-110.28 390.47,-220.59l150.82 -154.72c312.16,-389.41 325.92,-1059.42 100.9,-1463.14 -338.31,-606.99 -899.9,-603.99 -1534.67,-603.99 -50.28,0 -65.46,15.19 -65.46,65.48l0.01 0z"/>
   <path class="fil0" d="M2662.2 6395.36l0 -1506.08c301.94,0 519.35,-6.04 742.67,152.05 341.25,241.57 314.48,1013.6 -22.86,1222.76 -186.81,115.83 -422.37,131.27 -719.81,131.27zm-43.63 -1942.62l0 436.55 -654.65 0 0 2008.1 1047.43 0c434.47,0 755.79,-91.1 976.96,-310.58 242.69,-240.83 375.97,-492.43 375.97,-955.39 0,-589.91 -361.87,-1071.99 -845.83,-1183.88 -266.65,-61.66 -545.55,-60.28 -834.42,-60.28 -50.28,0 -65.46,15.19 -65.46,65.48z"/>
   <path class="fil0" d="M8597.63 6897.39l698.27 0 0 -2444.65c0,-50.29 -15.18,-65.48 -65.47,-65.48l-632.81 0 0 2510.13 0.01 0z"/>
   <path class="fil0" d="M4691.6 4452.74l0 2444.65 698.27 0 0 -2510.13 -632.82 0c-50.27,0 -65.46,15.19 -65.46,65.48l0.01 0z"/>
   <path class="fil0" d="M14860.37 5958.82c0,-362.64 293.71,-763.95 698.28,-763.95 239.17,0 404.7,29.35 584.29,223.14 372.01,401.45 259.92,1282.93 -584.29,1282.93 -231,0 -367.21,-111.16 -486.03,-234.14 -58.07,-60.09 -103.85,-125.51 -138.28,-210.92 -24.91,-61.81 -73.98,-227.71 -73.98,-297.07l0.01 0.01zm676.46 1004.04c465.25,0 572.39,-184.62 785.57,-327.41l0 261.93 283.68 0 0 -1920.79c-345.05,0 -283.68,-33.59 -283.68,305.57 -235.07,-270.5 -418.91,-349.23 -785.57,-349.23 -746.76,0 -1316.13,989.83 -681.82,1707.88 130.53,147.76 414.81,322.05 681.82,322.05z"/>
   <path class="fil0" d="M12503.66 6700.94c-291.18,0 -568.49,-173.83 -674.15,-438.86 -117.13,-293.83 -72.7,-616.22 144.53,-833.04 520.02,-519.09 1265.21,-113.15 1265.47,529.78 0.16,404.13 -319.63,742.11 -735.85,742.11l0 0.01zm-1003.78 -851.26c0,349.46 25.86,561.21 299.4,835.52 606.35,608.08 1708.17,152.69 1708.17,-660.92 0,-342.51 -48.24,-562.44 -277.88,-791.58 -655.32,-653.9 -1729.69,-161.48 -1729.69,616.97l0 0.01z"/>
   <path class="fil0" d="M9775.99 4299.94l0 2597.44 283.68 0 0 -807.6c170.59,114.26 641.62,565.5 834.98,736.34 119.57,105.65 237.92,71.25 452.48,71.25 -75.27,-112.43 -173.23,-164.35 -267.56,-256.21l-272.08 -251.71c-56.88,-54.8 -86.16,-64.32 -142.67,-119.22l-408.76 -376.91 518.51 -441.75c88.08,-81.99 157.34,-149.59 254.55,-225.58 64.22,-50.21 71.5,-62.1 126.97,-113.09 71.97,-66.16 100.8,-43.51 125.58,-136.32 -364.76,0 -324.71,-68.78 -692.58,289.45 -53.99,52.58 -78.26,59.02 -131.35,108.72l-398.07 343.95 0 -1156.84c0.25,-337.13 59,-327.41 -218.22,-327.41 -50.27,0 -65.46,15.19 -65.46,65.48l0 0.01z"/>
   <path class="fil0" d="M17042.52 5434.96c0,630.13 868.01,552.05 814.01,989.97 -28.08,227.63 -281.66,360.81 -567.77,204.31 -95.56,-52.26 -92.27,-101.11 -180.78,-124.75 -27.25,19.97 -131.73,143.22 -152.75,174.62 338.68,505.91 1178.35,289.15 1178.35,-283.75 0,-573.18 -851.03,-625.76 -851.03,-938.57 0,-192.57 158.49,-283.76 261.85,-283.76 216.12,0 292.24,114.48 414.61,196.45l157.28 -170.19c-281.26,-411.55 -1073.77,-357.41 -1073.77,235.67z"/>
   <path class="fil0" d="M18744.58 4321.77l0 654.82 -327.32 0c0,290.39 -55.38,240.1 327.32,240.1l0 1680.69 283.68 0 0 -1680.69c458.55,0 392.79,55.85 392.79,-240.1l-392.79 0 0 -654.82c0,-87.03 -61.82,-65.48 -218.21,-65.48 -50.29,0 -65.47,15.19 -65.47,65.48z"/>
   <path class="fil0" d="M13747.48 7399.42c-214.99,0 -196.39,-156.79 -196.39,196.45 154.7,36.04 632.82,229.9 632.82,-371.07l0 -2248.19c-356.37,0 -261.86,-125.56 -261.86,567.51 0,414.83 17.06,1295.69 -19.22,1661.46 -12.64,127.4 -20.58,193.85 -155.35,193.85l0 -0.01z"/>
   <path class="fil0" d="M13834.76 4387.26c0,345.47 414.61,227.99 414.61,65.48 0,-390.13 -414.61,-293.46 -414.61,-65.48z"/>
  </g>
 </g>
</svg>
